<svg xmlns="http://www.w3.org/2000/svg" viewBox="0 0 1280 360" role="img" aria-labelledby="t">
  <title id="t">冷咖啡 · AI 破甲越狱</title>
  <rect width="1280" height="360" rx="24" fill="#2A1810"/>
  <polygon points="72,118 108,144 94,194 50,194 36,144" fill="#3A2216" stroke="#C45C14" stroke-width="3"/>
  <circle cx="72" cy="156" r="8" fill="none" stroke="#E8C9A0" stroke-width="2"/>
  <text x="148" y="168" fill="#F7EFE3" font-family="Microsoft YaHei,Segoe UI,sans-serif" font-size="86" font-weight="700">冷咖啡</text>
  <rect x="148" y="196" width="168" height="38" rx="6" fill="#C45C14"/>
  <text x="232" y="222" text-anchor="middle" fill="#FFF8F0" font-family="Microsoft YaHei,sans-serif" font-size="18" font-weight="700">AI 破甲越狱</text>
  <text x="336" y="222" fill="#C9B49A" font-family="Microsoft YaHei,sans-serif" font-size="18">GPT-5.6 · Claude · Grok 4.6 · DeepSeek v4 Pro</text>
  <g font-family="Microsoft YaHei,sans-serif" font-size="15" font-weight="700">
    <rect x="148" y="262" width="88" height="32" rx="6" fill="#1F6B66"/><text x="192" y="284" text-anchor="middle" fill="#FFF8F0">逆向</text>
    <rect x="244" y="262" width="88" height="32" rx="6" fill="#FFF8F0"/><text x="288" y="284" text-anchor="middle" fill="#C45C14">破解</text>
    <rect x="340" y="262" width="88" height="32" rx="6" fill="#FFF8F0"/><text x="384" y="284" text-anchor="middle" fill="#C45C14">渗透</text>
    <rect x="436" y="262" width="88" height="32" rx="6" fill="#FFF8F0"/><text x="480" y="284" text-anchor="middle" fill="#C45C14">爬虫</text>
    <rect x="532" y="262" width="88" height="32" rx="6" fill="#FFF8F0"/><text x="576" y="284" text-anchor="middle" fill="#C45C14">外挂</text>
  </g>
  <text x="1232" y="284" text-anchor="end" fill="#C9B49A" font-family="Consolas,monospace" font-size="14">口令 冷咖啡</text>
</svg>
