<svg width="470" height="196" viewBox="0 0 470 196" fill="none" xmlns="http://www.w3.org/2000/svg" role="img" aria-labelledby="t d">
  <title id="t">冷咖啡 · 破甲越狱 Command Center</title>
  <desc id="d">ColdBrew 的 MAXIMUM CORE 项目卡。</desc>
  <rect x="1" y="1" width="468" height="194" rx="8" fill="#101923" stroke="#2A4053"/>
  <rect x="22" y="22" width="52" height="52" rx="6" fill="#0A1118" stroke="#43E4D0"/>
  <path d="M35 39H54V65H35Z" fill="#101923" stroke="#43E4D0" stroke-width="2"/>
  <path d="M41 46H49M41 52H49M41 58H46" stroke="#C7F36B" stroke-width="2"/>
  <text x="90" y="46" fill="#EDF6FB" font-family="Segoe UI,PingFang SC,Noto Sans SC,Microsoft YaHei,sans-serif" font-size="21" font-weight="760">冷咖啡</text>
  <text x="90" y="72" fill="#8DA5B6" font-family="Segoe UI,PingFang SC,Noto Sans SC,Microsoft YaHei,sans-serif" font-size="13">GPT-5.6 / Claude / Grok 4.6 / DeepSeek v4 Pro</text>
  <text x="24" y="124" fill="#EDF6FB" font-family="Segoe UI,PingFang SC,Noto Sans SC,Microsoft YaHei,sans-serif" font-size="34" font-weight="780">MAX</text>
  <text x="104" y="124" fill="#8DA5B6" font-family="Segoe UI,PingFang SC,Noto Sans SC,Microsoft YaHei,sans-serif" font-size="14" font-weight="650">continuous core</text>
  <rect x="24" y="146" width="86" height="26" rx="6" fill="#C7F36B"/>
  <text x="67" y="164" text-anchor="middle" fill="#091118" font-family="Segoe UI,PingFang SC,Noto Sans SC,Microsoft YaHei,sans-serif" font-size="12" font-weight="760">破甲全开</text>
  <rect x="118" y="146" width="86" height="26" rx="6" fill="#101923" stroke="#2A4053"/>
  <text x="161" y="164" text-anchor="middle" fill="#EDF6FB" font-family="Segoe UI,PingFang SC,Noto Sans SC,Microsoft YaHei,sans-serif" font-size="12" font-weight="650">原生窗口</text>
  <rect x="212" y="146" width="114" height="26" rx="6" fill="#101923" stroke="#2A4053"/>
  <text x="269" y="164" text-anchor="middle" fill="#43E4D0" font-family="Segoe UI,PingFang SC,Noto Sans SC,Microsoft YaHei,sans-serif" font-size="12" font-weight="650">MAXIMUM CORE</text>
  <path d="M412 150L434 128M434 128H416M434 128V146" stroke="#43E4D0" stroke-width="2.4" stroke-linecap="round" stroke-linejoin="round"/>
</svg>
